<svg xmlns="http://www.w3.org/2000/svg" width="850" height="1100">
  <style>.grey1{fill:#525861}.grey2{fill:#747b81}</style>
  <path fill="#3d4146" d="M405 721h40c11-3 9-15 5-21q-6-7-4-21 6 0 9-4c6-10-6-15-10-25q-5-21 8-38c34-4 46 20 57 45 19 1 33-14 41-28 15-31-5-41-7-52q-2-20-22-31c-7-4-7-2-10 3q-15 19-52 16-3-7-10-11c17-3 38-12 50-24 24-27 4-21-15-18 8-16 14-31 8-53 7 0 16-2 16-8l-7-6c-15-21-31-34-56-47 0-7 7-12 6-21-11-55 2-118-27-170-29 52-16 115-27 170-1 9 6 14 6 21-25 13-41 26-56 47l-7 6c0 6 9 8 16 8-6 22 0 37 8 53-19-3-39-9-15 18 12 12 33 21 50 24q-6 4-10 11c-33 0-93-18-86-146-2-12-105 66-71 202 12 45 26 59 49 95 38 64 33 102 39 105 14-33 10-79 10-114 0-6-2-7-5-11-7-11-20-65 33-57q12-24 38-27 13 17 8 38c-4 10-16 15-10 25q3 4 9 4 3 14-4 21c-4 6-6 18 5 21"/>
  <path d="M294 429c-54 66-57 166-31 229 15 34 23 38 40 78 2 6 16 40 14 44l4 17c4-27-7-74-16-103-8-26-8-45 4-69 15-29 51-32 26-42q-41-12-53-55-12-46 10-90l5-12z" class="grey1"/>
  <path fill="#dfb64e" d="M425 1100h20V721h-20z"/>
  <path fill="#f1cf6a" d="M405 1100h20V721h-20z"/>
  <path fill="#a2acb4" d="M360 469q0 22 8 36c5 9 3 8 11 11q24 9 40 27c8 9 12-3 25-13q41-46 22-69c-23 10-24-8-41-21l-35 20c-18 1-19 2-30 9"/>
  <path d="M317 780c2-4-12-38-14-44-17-40-25-44-40-78-32-80-13-159 31-229-24 12-115 126-18 268 14 21 36 58 41 83" class="grey2"/>
  <path d="M408 673h32c6-7-28-22 3-69 9-14 8-34-2-42-13 3-24 5-36-2-30 40 15 40 10 86-2 19-15 19-7 27" class="grey1"/>
  <path d="M360 469c9-2 20-3 24-8l3 8c14 0 23-13 38-29 11 11 19 26 35 30l6-9c11 28-7 49-22 69l10-6c17-10 19-5 27-17 10-16 9-31 6-48q-15-1-24-9-3 10-7 7c-11-2-23-18-31-30-8 12-20 28-36 30l-2-7c-11 7-11 6-25 9zm64-245c-5 23-8 52-9 77l-2 73 2 15h10c0-7-2-18 0-24V222z" class="grey2"/>
  <path d="M405 405c-2 2-27 8-43 42 18-2 31-20 31-20l2 18c15-7 25-13 30-35 3 3 3 11 6 14q1-12-1-23c-5 0-22 0-25 4m0-21c5 12 4 12 10 5v-88c1-25 4-54 9-77-6 7-15 65-15 77l-1 22v23q1 12-1 22-3 7-2 16m-57 132c0 8 27 31 70 33-19-19-33-28-70-33" class="grey1"/>
  <path d="m471 573 2 8c19 1 34-9 47-21q15 9 19 26c1-6-5-35-22-36-2 4-16 25-46 23m-63 100c-4-12 6-8 8-27 4-37-21-48-17-73q2-7 8-12l-3-2c-7 5-15 15-14 27 2 19 25 29 23 58-2 20-15 20-13 29zm10-245c-2-2 0-2-2 0q-7 9-18 15c-4-12 0-15 2-25-14 12-17 26-38 29l9-13q12-19 33-28l1-1q-22 6-35 24-8 13-20 23 27 6 42-22c2 3-2 14 1 20q15-8 25-22" class="grey2"/>
  <path d="M435 716c0-8-2-8-6-14s-1-9-3-16h-10l-9 25 3 5" class="grey1"/>
  <path d="M365 534c3-1-9-11-11-13 20-1 54 22 57 24 4 3 2 2 3 0a96 96 0 0 0-66-29c0 9 14 16 17 18" class="grey2"/>
  <path d="m451 448 5 2c4-7 1-14 0-21 4 5 2 9 10 13q-1-10-6-15-4-6-12-9c2 7 3 12 3 30" class="grey1"/>
  <path d="M436 546c15-14 40-24 60-27q-4 10-13 16c6-5 15-11 19-19q-39 1-66 30" class="grey2"/>
  <path d="m407 389 3 6h14l1-5v-25c-2 6-3 18 0 24z" class="grey1"/>
  <path d="M410 716c-5-10 6-6 6-30h-4c-1 22-11 21-8 27q2 4 6 3" class="grey2"/>
</svg>
