<svg xmlns="http://www.w3.org/2000/svg" width="128" height="128" viewBox="0 0 64 64" shape-rendering="crispEdges" fill="white">
  <path opacity="0.15" d="M10 0h1v1h-1zM14 0h1v1h-1zM27 0h1v1h-1zM30 0h2v1h-2zM34 0h2v1h-2zM40 0h2v1h-2zM45 0h1v1h-1zM47 0h1v1h-1zM51 0h1v1h-1zM60 0h1v1h-1zM62 0h1v1h-1zM1 1h1v1h-1zM3 1h2v1h-2zM11 1h1v1h-1zM13 1h1v1h-1zM17 1h1v1h-1zM19 1h1v1h-1zM22 1h1v1h-1zM24 1h1v1h-1zM26 1h2v1h-2zM29 1h2v1h-2zM36 1h1v1h-1zM41 1h1v1h-1zM51 1h2v1h-2zM60 1h1v1h-1zM0 2h2v1h-2zM9 2h2v1h-2zM13 2h1v1h-1zM19 2h1v1h-1zM22 2h1v1h-1zM29 2h1v1h-1zM43 2h1v1h-1zM45 2h1v1h-1zM50 2h1v1h-1zM54 2h1v1h-1zM57 2h1v1h-1zM3 3h1v1h-1zM8 3h1v1h-1zM13 3h1v1h-1zM15 3h1v1h-1zM17 3h1v1h-1zM25 3h2v1h-2zM29 3h1v1h-1zM39 3h1v1h-1zM43 3h1v1h-1zM47 3h1v1h-1zM52 3h4v1h-4zM57 3h1v1h-1zM5 4h1v1h-1zM7 4h1v1h-1zM9 4h3v1h-3zM15 4h1v1h-1zM19 4h2v1h-2zM22 4h1v1h-1zM27 4h2v1h-2zM33 4h1v1h-1zM37 4h1v1h-1zM43 4h1v1h-1zM53 4h1v1h-1zM59 4h1v1h-1zM61 4h1v1h-1zM1 5h1v1h-1zM5 5h2v1h-2zM8 5h1v1h-1zM17 5h1v1h-1zM19 5h1v1h-1zM21 5h2v1h-2zM25 5h2v1h-2zM40 5h1v1h-1zM48 5h2v1h-2zM52 5h1v1h-1zM61 5h2v1h-2zM7 6h1v1h-1zM15 6h3v1h-3zM19 6h1v1h-1zM28 6h1v1h-1zM34 6h1v1h-1zM37 6h2v1h-2zM40 6h1v1h-1zM48 6h1v1h-1zM53 6h1v1h-1zM61 6h1v1h-1zM63 6h1v1h-1zM0 7h1v1h-1zM3 7h1v1h-1zM13 7h2v1h-2zM16 7h1v1h-1zM26 7h1v1h-1zM29 7h1v1h-1zM35 7h1v1h-1zM39 7h1v1h-1zM49 7h1v1h-1zM53 7h1v1h-1zM56 7h3v1h-3zM61 7h1v1h-1zM63 7h1v1h-1zM7 8h1v1h-1zM15 8h1v1h-1zM30 8h1v1h-1zM35 8h1v1h-1zM37 8h1v1h-1zM43 8h1v1h-1zM46 8h1v1h-1zM49 8h1v1h-1zM51 8h1v1h-1zM58 8h1v1h-1zM63 8h1v1h-1zM9 9h1v1h-1zM11 9h1v1h-1zM13 9h1v1h-1zM25 9h2v1h-2zM31 9h1v1h-1zM34 9h1v1h-1zM36 9h1v1h-1zM39 9h1v1h-1zM42 9h1v1h-1zM51 9h1v1h-1zM56 9h1v1h-1zM9 10h1v1h-1zM14 10h4v1h-4zM32 10h1v1h-1zM35 10h1v1h-1zM43 10h1v1h-1zM46 10h3v1h-3zM53 10h1v1h-1zM55 10h2v1h-2zM60 10h1v1h-1zM63 10h1v1h-1zM5 11h1v1h-1zM9 11h1v1h-1zM13 11h2v1h-2zM16 11h1v1h-1zM21 11h2v1h-2zM27 11h1v1h-1zM29 11h1v1h-1zM31 11h2v1h-2zM34 11h3v1h-3zM38 11h1v1h-1zM41 11h2v1h-2zM48 11h2v1h-2zM51 11h1v1h-1zM53 11h1v1h-1zM58 11h1v1h-1zM5 12h1v1h-1zM14 12h1v1h-1zM17 12h2v1h-2zM21 12h1v1h-1zM30 12h1v1h-1zM32 12h1v1h-1zM34 12h1v1h-1zM56 12h3v1h-3zM0 13h2v1h-2zM3 13h1v1h-1zM11 13h1v1h-1zM14 13h1v1h-1zM20 13h1v1h-1zM23 13h1v1h-1zM27 13h1v1h-1zM30 13h1v1h-1zM32 13h1v1h-1zM36 13h1v1h-1zM45 13h1v1h-1zM51 13h2v1h-2zM59 13h1v1h-1zM62 13h2v1h-2zM5 14h3v1h-3zM12 14h1v1h-1zM19 14h1v1h-1zM23 14h1v1h-1zM25 14h2v1h-2zM32 14h1v1h-1zM34 14h2v1h-2zM51 14h1v1h-1zM2 15h1v1h-1zM5 15h1v1h-1zM8 15h1v1h-1zM20 15h1v1h-1zM22 15h1v1h-1zM31 15h1v1h-1zM33 15h1v1h-1zM38 15h1v1h-1zM40 15h1v1h-1zM45 15h1v1h-1zM51 15h1v1h-1zM57 15h1v1h-1zM1 16h1v1h-1zM13 16h1v1h-1zM16 16h1v1h-1zM18 16h1v1h-1zM20 16h1v1h-1zM23 16h1v1h-1zM25 16h1v1h-1zM28 16h2v1h-2zM32 16h1v1h-1zM46 16h1v1h-1zM50 16h1v1h-1zM55 16h2v1h-2zM60 16h1v1h-1zM6 17h1v1h-1zM9 17h1v1h-1zM13 17h1v1h-1zM16 17h1v1h-1zM18 17h1v1h-1zM24 17h2v1h-2zM27 17h1v1h-1zM29 17h1v1h-1zM42 17h1v1h-1zM44 17h4v1h-4zM50 17h1v1h-1zM54 17h1v1h-1zM62 17h2v1h-2zM0 18h1v1h-1zM2 18h2v1h-2zM5 18h2v1h-2zM9 18h1v1h-1zM15 18h2v1h-2zM22 18h1v1h-1zM27 18h1v1h-1zM32 18h1v1h-1zM35 18h2v1h-2zM43 18h2v1h-2zM46 18h4v1h-4zM53 18h2v1h-2zM61 18h1v1h-1zM2 19h2v1h-2zM5 19h1v1h-1zM9 19h1v1h-1zM11 19h1v1h-1zM20 19h1v1h-1zM22 19h2v1h-2zM26 19h1v1h-1zM37 19h5v1h-5zM43 19h2v1h-2zM48 19h1v1h-1zM51 19h1v1h-1zM55 19h1v1h-1zM59 19h2v1h-2zM63 19h1v1h-1zM3 20h1v1h-1zM6 20h1v1h-1zM8 20h1v1h-1zM10 20h1v1h-1zM20 20h2v1h-2zM25 20h2v1h-2zM29 20h1v1h-1zM37 20h1v1h-1zM41 20h2v1h-2zM47 20h1v1h-1zM49 20h2v1h-2zM57 20h1v1h-1zM63 20h1v1h-1zM1 21h1v1h-1zM5 21h1v1h-1zM11 21h1v1h-1zM13 21h3v1h-3zM21 21h1v1h-1zM24 21h2v1h-2zM31 21h1v1h-1zM33 21h1v1h-1zM37 21h1v1h-1zM39 21h1v1h-1zM43 21h1v1h-1zM45 21h1v1h-1zM49 21h1v1h-1zM55 21h1v1h-1zM59 21h2v1h-2zM62 21h1v1h-1zM0 22h1v1h-1zM4 22h2v1h-2zM8 22h1v1h-1zM10 22h1v1h-1zM14 22h2v1h-2zM19 22h1v1h-1zM27 22h5v1h-5zM34 22h1v1h-1zM36 22h3v1h-3zM40 22h1v1h-1zM42 22h1v1h-1zM51 22h1v1h-1zM53 22h1v1h-1zM56 22h5v1h-5zM62 22h1v1h-1zM9 23h1v1h-1zM15 23h1v1h-1zM20 23h1v1h-1zM23 23h1v1h-1zM28 23h1v1h-1zM31 23h1v1h-1zM33 23h1v1h-1zM37 23h2v1h-2zM44 23h1v1h-1zM48 23h1v1h-1zM52 23h1v1h-1zM57 23h2v1h-2zM1 24h3v1h-3zM5 24h1v1h-1zM8 24h1v1h-1zM12 24h1v1h-1zM20 24h1v1h-1zM24 24h1v1h-1zM26 24h1v1h-1zM30 24h2v1h-2zM45 24h1v1h-1zM51 24h1v1h-1zM62 24h2v1h-2zM0 25h1v1h-1zM3 25h1v1h-1zM10 25h2v1h-2zM16 25h1v1h-1zM18 25h1v1h-1zM27 25h2v1h-2zM62 25h1v1h-1zM5 26h1v1h-1zM8 26h1v1h-1zM14 26h1v1h-1zM16 26h1v1h-1zM25 26h1v1h-1zM29 26h1v1h-1zM31 26h3v1h-3zM38 26h1v1h-1zM54 26h2v1h-2zM62 26h1v1h-1zM7 27h1v1h-1zM19 27h1v1h-1zM21 27h2v1h-2zM40 27h2v1h-2zM45 27h1v1h-1zM47 27h2v1h-2zM50 27h3v1h-3zM2 28h1v1h-1zM6 28h1v1h-1zM13 28h1v1h-1zM19 28h2v1h-2zM22 28h1v1h-1zM25 28h1v1h-1zM33 28h3v1h-3zM47 28h1v1h-1zM51 28h1v1h-1zM53 28h1v1h-1zM55 28h1v1h-1zM58 28h1v1h-1zM5 29h1v1h-1zM7 29h2v1h-2zM11 29h1v1h-1zM14 29h1v1h-1zM20 29h1v1h-1zM23 29h1v1h-1zM29 29h1v1h-1zM31 29h2v1h-2zM42 29h1v1h-1zM47 29h3v1h-3zM51 29h1v1h-1zM56 29h1v1h-1zM61 29h1v1h-1zM3 30h1v1h-1zM13 30h1v1h-1zM18 30h1v1h-1zM21 30h1v1h-1zM26 30h1v1h-1zM36 30h1v1h-1zM38 30h1v1h-1zM40 30h1v1h-1zM43 30h1v1h-1zM48 30h1v1h-1zM50 30h1v1h-1zM56 30h1v1h-1zM60 30h1v1h-1zM62 30h1v1h-1zM6 31h1v1h-1zM14 31h1v1h-1zM20 31h2v1h-2zM24 31h1v1h-1zM26 31h1v1h-1zM28 31h1v1h-1zM33 31h1v1h-1zM36 31h2v1h-2zM41 31h1v1h-1zM45 31h2v1h-2zM55 31h1v1h-1zM59 31h1v1h-1zM2 32h1v1h-1zM6 32h1v1h-1zM13 32h1v1h-1zM15 32h1v1h-1zM20 32h1v1h-1zM26 32h1v1h-1zM29 32h1v1h-1zM33 32h2v1h-2zM36 32h1v1h-1zM38 32h1v1h-1zM44 32h1v1h-1zM46 32h2v1h-2zM51 32h1v1h-1zM54 32h1v1h-1zM56 32h2v1h-2zM61 32h1v1h-1zM1 33h3v1h-3zM5 33h1v1h-1zM7 33h1v1h-1zM9 33h1v1h-1zM15 33h1v1h-1zM18 33h1v1h-1zM24 33h1v1h-1zM40 33h2v1h-2zM45 33h4v1h-4zM52 33h1v1h-1zM56 33h1v1h-1zM60 33h1v1h-1zM11 34h1v1h-1zM14 34h2v1h-2zM25 34h1v1h-1zM50 34h1v1h-1zM60 34h1v1h-1zM5 35h1v1h-1zM9 35h1v1h-1zM24 35h1v1h-1zM40 35h1v1h-1zM49 35h1v1h-1zM51 35h1v1h-1zM56 35h2v1h-2zM59 35h1v1h-1zM2 36h1v1h-1zM4 36h3v1h-3zM13 36h1v1h-1zM17 36h3v1h-3zM21 36h1v1h-1zM25 36h1v1h-1zM31 36h1v1h-1zM37 36h2v1h-2zM43 36h1v1h-1zM49 36h1v1h-1zM54 36h1v1h-1zM58 36h1v1h-1zM3 37h1v1h-1zM10 37h1v1h-1zM15 37h1v1h-1zM17 37h1v1h-1zM20 37h1v1h-1zM25 37h1v1h-1zM27 37h1v1h-1zM30 37h1v1h-1zM37 37h1v1h-1zM45 37h4v1h-4zM50 37h2v1h-2zM5 38h2v1h-2zM12 38h1v1h-1zM25 38h1v1h-1zM29 38h1v1h-1zM35 38h1v1h-1zM38 38h1v1h-1zM51 38h1v1h-1zM58 38h1v1h-1zM61 38h1v1h-1zM1 39h1v1h-1zM7 39h1v1h-1zM12 39h1v1h-1zM21 39h1v1h-1zM24 39h3v1h-3zM30 39h2v1h-2zM37 39h1v1h-1zM41 39h2v1h-2zM48 39h1v1h-1zM52 39h1v1h-1zM56 39h1v1h-1zM4 40h1v1h-1zM13 40h1v1h-1zM16 40h1v1h-1zM25 40h1v1h-1zM28 40h1v1h-1zM30 40h1v1h-1zM32 40h1v1h-1zM42 40h1v1h-1zM47 40h1v1h-1zM53 40h1v1h-1zM56 40h2v1h-2zM59 40h1v1h-1zM63 40h1v1h-1zM11 41h1v1h-1zM19 41h1v1h-1zM22 41h1v1h-1zM29 41h2v1h-2zM32 41h2v1h-2zM53 41h2v1h-2zM58 41h3v1h-3zM62 41h1v1h-1zM10 42h4v1h-4zM15 42h1v1h-1zM17 42h2v1h-2zM28 42h2v1h-2zM31 42h1v1h-1zM37 42h1v1h-1zM43 42h1v1h-1zM48 42h1v1h-1zM55 42h1v1h-1zM2 43h1v1h-1zM7 43h1v1h-1zM10 43h1v1h-1zM20 43h1v1h-1zM22 43h1v1h-1zM24 43h1v1h-1zM28 43h1v1h-1zM30 43h1v1h-1zM32 43h1v1h-1zM35 43h1v1h-1zM37 43h1v1h-1zM52 43h1v1h-1zM54 43h3v1h-3zM62 43h2v1h-2zM2 44h3v1h-3zM6 44h1v1h-1zM8 44h1v1h-1zM15 44h1v1h-1zM18 44h1v1h-1zM21 44h1v1h-1zM29 44h1v1h-1zM43 44h6v1h-6zM53 44h1v1h-1zM0 45h3v1h-3zM11 45h1v1h-1zM13 45h1v1h-1zM18 45h1v1h-1zM22 45h2v1h-2zM30 45h1v1h-1zM33 45h2v1h-2zM40 45h2v1h-2zM45 45h1v1h-1zM49 45h1v1h-1zM51 45h1v1h-1zM54 45h1v1h-1zM56 45h1v1h-1zM58 45h1v1h-1zM60 45h1v1h-1zM62 45h1v1h-1zM2 46h1v1h-1zM4 46h1v1h-1zM10 46h2v1h-2zM13 46h1v1h-1zM17 46h1v1h-1zM25 46h1v1h-1zM27 46h1v1h-1zM35 46h1v1h-1zM37 46h1v1h-1zM41 46h1v1h-1zM43 46h1v1h-1zM54 46h1v1h-1zM61 46h1v1h-1zM0 47h1v1h-1zM5 47h3v1h-3zM16 47h4v1h-4zM23 47h2v1h-2zM26 47h3v1h-3zM34 47h2v1h-2zM38 47h1v1h-1zM42 47h1v1h-1zM46 47h1v1h-1zM48 47h2v1h-2zM55 47h2v1h-2zM59 47h1v1h-1zM1 48h1v1h-1zM5 48h1v1h-1zM12 48h1v1h-1zM14 48h1v1h-1zM18 48h1v1h-1zM23 48h1v1h-1zM26 48h2v1h-2zM30 48h1v1h-1zM37 48h1v1h-1zM44 48h1v1h-1zM46 48h1v1h-1zM54 48h2v1h-2zM57 48h1v1h-1zM0 49h1v1h-1zM4 49h1v1h-1zM6 49h1v1h-1zM13 49h1v1h-1zM23 49h1v1h-1zM25 49h1v1h-1zM28 49h1v1h-1zM30 49h1v1h-1zM32 49h1v1h-1zM38 49h2v1h-2zM48 49h1v1h-1zM0 50h1v1h-1zM5 50h1v1h-1zM9 50h1v1h-1zM20 50h1v1h-1zM29 50h2v1h-2zM33 50h1v1h-1zM36 50h1v1h-1zM41 50h1v1h-1zM44 50h1v1h-1zM46 50h2v1h-2zM57 50h3v1h-3zM0 51h3v1h-3zM6 51h1v1h-1zM9 51h1v1h-1zM11 51h1v1h-1zM16 51h3v1h-3zM22 51h1v1h-1zM25 51h1v1h-1zM29 51h1v1h-1zM42 51h1v1h-1zM44 51h2v1h-2zM48 51h1v1h-1zM50 51h1v1h-1zM60 51h2v1h-2zM0 52h1v1h-1zM6 52h2v1h-2zM18 52h2v1h-2zM22 52h2v1h-2zM25 52h1v1h-1zM30 52h2v1h-2zM33 52h1v1h-1zM36 52h1v1h-1zM44 52h1v1h-1zM46 52h1v1h-1zM48 52h2v1h-2zM55 52h1v1h-1zM58 52h2v1h-2zM61 52h1v1h-1zM63 52h1v1h-1zM0 53h1v1h-1zM7 53h2v1h-2zM15 53h1v1h-1zM17 53h1v1h-1zM24 53h2v1h-2zM29 53h1v1h-1zM31 53h1v1h-1zM35 53h1v1h-1zM40 53h1v1h-1zM42 53h2v1h-2zM49 53h1v1h-1zM51 53h1v1h-1zM53 53h1v1h-1zM5 54h3v1h-3zM9 54h1v1h-1zM12 54h1v1h-1zM14 54h1v1h-1zM29 54h1v1h-1zM31 54h2v1h-2zM34 54h2v1h-2zM37 54h1v1h-1zM40 54h2v1h-2zM43 54h1v1h-1zM54 54h1v1h-1zM57 54h3v1h-3zM61 54h1v1h-1zM2 55h3v1h-3zM10 55h1v1h-1zM16 55h1v1h-1zM25 55h1v1h-1zM27 55h1v1h-1zM31 55h1v1h-1zM37 55h3v1h-3zM43 55h1v1h-1zM46 55h2v1h-2zM49 55h1v1h-1zM52 55h1v1h-1zM54 55h4v1h-4zM15 56h1v1h-1zM21 56h1v1h-1zM23 56h1v1h-1zM25 56h2v1h-2zM33 56h1v1h-1zM43 56h1v1h-1zM48 56h1v1h-1zM60 56h1v1h-1zM62 56h1v1h-1zM0 57h2v1h-2zM10 57h2v1h-2zM13 57h1v1h-1zM16 57h1v1h-1zM20 57h1v1h-1zM22 57h1v1h-1zM29 57h2v1h-2zM36 57h1v1h-1zM43 57h1v1h-1zM45 57h1v1h-1zM47 57h2v1h-2zM50 57h2v1h-2zM54 57h1v1h-1zM56 57h2v1h-2zM60 57h1v1h-1zM12 58h1v1h-1zM15 58h2v1h-2zM20 58h1v1h-1zM23 58h2v1h-2zM34 58h1v1h-1zM38 58h1v1h-1zM42 58h5v1h-5zM48 58h1v1h-1zM53 58h2v1h-2zM6 59h1v1h-1zM14 59h2v1h-2zM17 59h1v1h-1zM19 59h1v1h-1zM30 59h2v1h-2zM33 59h2v1h-2zM41 59h1v1h-1zM43 59h2v1h-2zM47 59h1v1h-1zM49 59h1v1h-1zM57 59h1v1h-1zM1 60h1v1h-1zM4 60h1v1h-1zM7 60h1v1h-1zM10 60h1v1h-1zM12 60h2v1h-2zM17 60h1v1h-1zM19 60h1v1h-1zM25 60h1v1h-1zM31 60h1v1h-1zM33 60h1v1h-1zM38 60h1v1h-1zM40 60h1v1h-1zM43 60h2v1h-2zM48 60h1v1h-1zM50 60h1v1h-1zM56 60h3v1h-3zM0 61h1v1h-1zM12 61h4v1h-4zM19 61h1v1h-1zM22 61h1v1h-1zM33 61h1v1h-1zM39 61h2v1h-2zM42 61h1v1h-1zM48 61h1v1h-1zM51 61h1v1h-1zM53 61h1v1h-1zM55 61h2v1h-2zM58 61h2v1h-2zM63 61h1v1h-1zM0 62h1v1h-1zM9 62h2v1h-2zM12 62h1v1h-1zM17 62h1v1h-1zM19 62h1v1h-1zM23 62h2v1h-2zM26 62h2v1h-2zM30 62h1v1h-1zM36 62h2v1h-2zM39 62h1v1h-1zM45 62h1v1h-1zM49 62h1v1h-1zM53 62h3v1h-3zM59 62h1v1h-1zM5 63h1v1h-1zM9 63h3v1h-3zM14 63h1v1h-1zM17 63h1v1h-1zM27 63h1v1h-1zM32 63h1v1h-1zM36 63h1v1h-1zM40 63h1v1h-1zM44 63h1v1h-1zM46 63h1v1h-1zM51 63h3v1h-3zM60 63h1v1h-1zM62 63h1v1h-1z" />
  <path opacity="0.4" d="M0 0h1v1h-1zM2 0h2v1h-2zM11 0h1v1h-1zM13 0h1v1h-1zM17 0h1v1h-1zM23 0h2v1h-2zM33 0h1v1h-1zM36 0h1v1h-1zM42 0h2v1h-2zM46 0h1v1h-1zM48 0h1v1h-1zM52 0h1v1h-1zM54 0h1v1h-1zM59 0h1v1h-1zM63 0h1v1h-1zM7 1h2v1h-2zM10 1h1v1h-1zM14 1h1v1h-1zM18 1h1v1h-1zM21 1h1v1h-1zM31 1h1v1h-1zM37 1h1v1h-1zM40 1h1v1h-1zM43 1h1v1h-1zM46 1h1v1h-1zM48 1h1v1h-1zM54 1h1v1h-1zM57 1h1v1h-1zM61 1h1v1h-1zM16 2h1v1h-1zM18 2h1v1h-1zM21 2h1v1h-1zM24 2h1v1h-1zM26 2h1v1h-1zM28 2h1v1h-1zM30 2h1v1h-1zM36 2h1v1h-1zM39 2h2v1h-2zM42 2h1v1h-1zM47 2h1v1h-1zM49 2h1v1h-1zM52 2h2v1h-2zM56 2h1v1h-1zM0 3h2v1h-2zM9 3h2v1h-2zM12 3h1v1h-1zM22 3h1v1h-1zM24 3h1v1h-1zM28 3h1v1h-1zM33 3h1v1h-1zM37 3h2v1h-2zM41 3h1v1h-1zM44 3h1v1h-1zM46 3h1v1h-1zM50 3h1v1h-1zM61 3h3v1h-3zM3 4h1v1h-1zM8 4h1v1h-1zM12 4h2v1h-2zM16 4h1v1h-1zM21 4h1v1h-1zM26 4h1v1h-1zM31 4h1v1h-1zM35 4h1v1h-1zM38 4h2v1h-2zM42 4h1v1h-1zM51 4h1v1h-1zM55 4h1v1h-1zM58 4h1v1h-1zM3 5h2v1h-2zM10 5h1v1h-1zM20 5h1v1h-1zM24 5h1v1h-1zM30 5h1v1h-1zM33 5h5v1h-5zM44 5h2v1h-2zM51 5h1v1h-1zM56 5h2v1h-2zM0 6h1v1h-1zM2 6h1v1h-1zM8 6h1v1h-1zM18 6h1v1h-1zM24 6h1v1h-1zM26 6h1v1h-1zM31 6h3v1h-3zM35 6h1v1h-1zM45 6h1v1h-1zM50 6h2v1h-2zM57 6h1v1h-1zM62 6h1v1h-1zM2 7h1v1h-1zM10 7h1v1h-1zM12 7h1v1h-1zM15 7h1v1h-1zM19 7h1v1h-1zM28 7h1v1h-1zM32 7h1v1h-1zM41 7h3v1h-3zM50 7h1v1h-1zM60 7h1v1h-1zM0 8h1v1h-1zM5 8h1v1h-1zM9 8h1v1h-1zM14 8h1v1h-1zM17 8h1v1h-1zM19 8h2v1h-2zM22 8h1v1h-1zM25 8h1v1h-1zM27 8h1v1h-1zM32 8h3v1h-3zM36 8h1v1h-1zM41 8h1v1h-1zM48 8h1v1h-1zM50 8h1v1h-1zM54 8h1v1h-1zM56 8h1v1h-1zM59 8h4v1h-4zM1 9h1v1h-1zM5 9h1v1h-1zM8 9h1v1h-1zM12 9h1v1h-1zM14 9h1v1h-1zM16 9h1v1h-1zM22 9h1v1h-1zM24 9h1v1h-1zM29 9h1v1h-1zM33 9h1v1h-1zM37 9h2v1h-2zM43 9h2v1h-2zM49 9h1v1h-1zM55 9h1v1h-1zM60 9h2v1h-2zM0 10h1v1h-1zM3 10h2v1h-2zM13 10h1v1h-1zM19 10h2v1h-2zM27 10h1v1h-1zM33 10h2v1h-2zM39 10h1v1h-1zM41 10h2v1h-2zM59 10h1v1h-1zM2 11h2v1h-2zM17 11h1v1h-1zM19 11h1v1h-1zM37 11h1v1h-1zM39 11h2v1h-2zM55 11h2v1h-2zM63 11h1v1h-1zM2 12h1v1h-1zM11 12h1v1h-1zM20 12h1v1h-1zM22 12h1v1h-1zM25 12h1v1h-1zM28 12h2v1h-2zM33 12h1v1h-1zM35 12h2v1h-2zM38 12h2v1h-2zM43 12h5v1h-5zM12 13h1v1h-1zM17 13h2v1h-2zM22 13h1v1h-1zM24 13h1v1h-1zM28 13h1v1h-1zM35 13h1v1h-1zM37 13h1v1h-1zM39 13h2v1h-2zM43 13h1v1h-1zM46 13h1v1h-1zM55 13h1v1h-1zM57 13h1v1h-1zM0 14h1v1h-1zM2 14h1v1h-1zM4 14h1v1h-1zM14 14h1v1h-1zM24 14h1v1h-1zM28 14h1v1h-1zM30 14h1v1h-1zM37 14h1v1h-1zM41 14h3v1h-3zM52 14h2v1h-2zM55 14h1v1h-1zM58 14h1v1h-1zM63 14h1v1h-1zM4 15h1v1h-1zM11 15h1v1h-1zM14 15h1v1h-1zM17 15h1v1h-1zM19 15h1v1h-1zM27 15h1v1h-1zM30 15h1v1h-1zM35 15h1v1h-1zM37 15h1v1h-1zM53 15h1v1h-1zM55 15h1v1h-1zM62 15h2v1h-2zM5 16h1v1h-1zM9 16h1v1h-1zM17 16h1v1h-1zM22 16h1v1h-1zM27 16h1v1h-1zM30 16h2v1h-2zM37 16h1v1h-1zM41 16h1v1h-1zM45 16h1v1h-1zM63 16h1v1h-1zM0 17h1v1h-1zM2 17h1v1h-1zM8 17h1v1h-1zM11 17h2v1h-2zM19 17h1v1h-1zM22 17h1v1h-1zM26 17h1v1h-1zM30 17h2v1h-2zM33 17h1v1h-1zM36 17h1v1h-1zM48 17h1v1h-1zM52 17h2v1h-2zM55 17h2v1h-2zM59 17h1v1h-1zM1 18h1v1h-1zM4 18h1v1h-1zM10 18h1v1h-1zM13 18h1v1h-1zM18 18h2v1h-2zM30 18h1v1h-1zM37 18h3v1h-3zM51 18h1v1h-1zM55 18h1v1h-1zM58 18h3v1h-3zM1 19h1v1h-1zM7 19h1v1h-1zM10 19h1v1h-1zM13 19h1v1h-1zM15 19h1v1h-1zM17 19h1v1h-1zM21 19h1v1h-1zM24 19h1v1h-1zM31 19h1v1h-1zM33 19h1v1h-1zM35 19h2v1h-2zM47 19h1v1h-1zM57 19h1v1h-1zM62 19h1v1h-1zM0 20h1v1h-1zM5 20h1v1h-1zM7 20h1v1h-1zM16 20h1v1h-1zM23 20h2v1h-2zM27 20h2v1h-2zM31 20h1v1h-1zM33 20h1v1h-1zM40 20h1v1h-1zM43 20h1v1h-1zM45 20h1v1h-1zM52 20h1v1h-1zM59 20h1v1h-1zM61 20h2v1h-2zM0 21h1v1h-1zM3 21h1v1h-1zM7 21h1v1h-1zM9 21h1v1h-1zM16 21h3v1h-3zM23 21h1v1h-1zM29 21h1v1h-1zM32 21h1v1h-1zM34 21h3v1h-3zM38 21h1v1h-1zM40 21h1v1h-1zM42 21h1v1h-1zM51 21h1v1h-1zM54 21h1v1h-1zM57 21h2v1h-2zM2 22h2v1h-2zM6 22h1v1h-1zM9 22h1v1h-1zM11 22h1v1h-1zM18 22h1v1h-1zM21 22h2v1h-2zM39 22h1v1h-1zM46 22h1v1h-1zM55 22h1v1h-1zM0 23h1v1h-1zM4 23h1v1h-1zM12 23h1v1h-1zM19 23h1v1h-1zM21 23h1v1h-1zM26 23h1v1h-1zM34 23h1v1h-1zM42 23h2v1h-2zM53 23h2v1h-2zM56 23h1v1h-1zM4 24h1v1h-1zM15 24h2v1h-2zM22 24h2v1h-2zM29 24h1v1h-1zM32 24h1v1h-1zM34 24h2v1h-2zM37 24h2v1h-2zM43 24h1v1h-1zM49 24h1v1h-1zM57 24h1v1h-1zM59 24h1v1h-1zM6 25h1v1h-1zM9 25h1v1h-1zM19 25h1v1h-1zM30 25h2v1h-2zM34 25h1v1h-1zM40 25h1v1h-1zM45 25h5v1h-5zM51 25h3v1h-3zM56 25h1v1h-1zM0 26h1v1h-1zM17 26h1v1h-1zM19 26h1v1h-1zM24 26h1v1h-1zM26 26h2v1h-2zM37 26h1v1h-1zM39 26h1v1h-1zM51 26h1v1h-1zM56 26h1v1h-1zM60 26h1v1h-1zM63 26h1v1h-1zM1 27h1v1h-1zM4 27h1v1h-1zM6 27h1v1h-1zM11 27h3v1h-3zM15 27h1v1h-1zM17 27h2v1h-2zM20 27h1v1h-1zM25 27h1v1h-1zM31 27h1v1h-1zM34 27h1v1h-1zM38 27h1v1h-1zM42 27h1v1h-1zM49 27h1v1h-1zM53 27h1v1h-1zM55 27h1v1h-1zM58 27h1v1h-1zM1 28h1v1h-1zM5 28h1v1h-1zM8 28h1v1h-1zM10 28h2v1h-2zM16 28h3v1h-3zM23 28h1v1h-1zM29 28h1v1h-1zM36 28h1v1h-1zM38 28h1v1h-1zM40 28h1v1h-1zM56 28h1v1h-1zM61 28h1v1h-1zM63 28h1v1h-1zM3 29h1v1h-1zM12 29h2v1h-2zM16 29h1v1h-1zM24 29h2v1h-2zM27 29h1v1h-1zM34 29h1v1h-1zM36 29h3v1h-3zM40 29h1v1h-1zM43 29h2v1h-2zM55 29h1v1h-1zM59 29h1v1h-1zM62 29h1v1h-1zM1 30h2v1h-2zM5 30h1v1h-1zM12 30h1v1h-1zM14 30h1v1h-1zM16 30h1v1h-1zM19 30h1v1h-1zM24 30h1v1h-1zM27 30h1v1h-1zM30 30h2v1h-2zM34 30h1v1h-1zM41 30h1v1h-1zM46 30h1v1h-1zM53 30h2v1h-2zM58 30h1v1h-1zM1 31h1v1h-1zM5 31h1v1h-1zM7 31h1v1h-1zM9 31h2v1h-2zM18 31h1v1h-1zM25 31h1v1h-1zM27 31h1v1h-1zM29 31h1v1h-1zM31 31h1v1h-1zM35 31h1v1h-1zM42 31h1v1h-1zM49 31h1v1h-1zM52 31h1v1h-1zM56 31h3v1h-3zM61 31h1v1h-1zM4 32h1v1h-1zM18 32h2v1h-2zM23 32h3v1h-3zM27 32h2v1h-2zM30 32h1v1h-1zM32 32h1v1h-1zM37 32h1v1h-1zM39 32h2v1h-2zM49 32h1v1h-1zM55 32h1v1h-1zM59 32h1v1h-1zM63 32h1v1h-1zM10 33h2v1h-2zM13 33h2v1h-2zM21 33h1v1h-1zM27 33h1v1h-1zM34 33h1v1h-1zM39 33h1v1h-1zM44 33h1v1h-1zM50 33h1v1h-1zM61 33h3v1h-3zM2 34h1v1h-1zM5 34h1v1h-1zM10 34h1v1h-1zM13 34h1v1h-1zM16 34h1v1h-1zM20 34h1v1h-1zM22 34h1v1h-1zM24 34h1v1h-1zM26 34h1v1h-1zM29 34h1v1h-1zM33 34h1v1h-1zM37 34h1v1h-1zM40 34h2v1h-2zM45 34h1v1h-1zM47 34h1v1h-1zM49 34h1v1h-1zM51 34h1v1h-1zM54 34h2v1h-2zM0 35h1v1h-1zM7 35h1v1h-1zM10 35h1v1h-1zM16 35h4v1h-4zM21 35h1v1h-1zM25 35h1v1h-1zM28 35h2v1h-2zM34 35h2v1h-2zM37 35h1v1h-1zM44 35h4v1h-4zM54 35h1v1h-1zM58 35h1v1h-1zM3 36h1v1h-1zM9 36h1v1h-1zM11 36h1v1h-1zM16 36h1v1h-1zM20 36h1v1h-1zM22 36h3v1h-3zM27 36h1v1h-1zM33 36h1v1h-1zM36 36h1v1h-1zM39 36h1v1h-1zM41 36h1v1h-1zM45 36h2v1h-2zM51 36h1v1h-1zM56 36h2v1h-2zM59 36h5v1h-5zM4 37h2v1h-2zM12 37h1v1h-1zM16 37h1v1h-1zM24 37h1v1h-1zM35 37h1v1h-1zM39 37h1v1h-1zM49 37h1v1h-1zM52 37h1v1h-1zM59 37h2v1h-2zM2 38h3v1h-3zM8 38h1v1h-1zM10 38h1v1h-1zM13 38h1v1h-1zM16 38h1v1h-1zM18 38h3v1h-3zM26 38h1v1h-1zM31 38h1v1h-1zM34 38h1v1h-1zM36 38h2v1h-2zM40 38h2v1h-2zM43 38h1v1h-1zM46 38h2v1h-2zM55 38h1v1h-1zM57 38h1v1h-1zM60 38h1v1h-1zM0 39h1v1h-1zM9 39h2v1h-2zM13 39h1v1h-1zM16 39h1v1h-1zM22 39h1v1h-1zM27 39h2v1h-2zM38 39h1v1h-1zM40 39h1v1h-1zM47 39h1v1h-1zM49 39h2v1h-2zM55 39h1v1h-1zM58 39h1v1h-1zM61 39h1v1h-1zM0 40h2v1h-2zM5 40h1v1h-1zM9 40h1v1h-1zM14 40h1v1h-1zM20 40h2v1h-2zM23 40h1v1h-1zM26 40h2v1h-2zM29 40h1v1h-1zM34 40h1v1h-1zM36 40h1v1h-1zM38 40h1v1h-1zM41 40h1v1h-1zM43 40h2v1h-2zM48 40h1v1h-1zM58 40h1v1h-1zM62 40h1v1h-1zM1 41h1v1h-1zM4 41h1v1h-1zM8 41h3v1h-3zM15 41h1v1h-1zM18 41h1v1h-1zM21 41h1v1h-1zM23 41h3v1h-3zM28 41h1v1h-1zM36 41h1v1h-1zM38 41h1v1h-1zM41 41h1v1h-1zM55 41h3v1h-3zM61 41h1v1h-1zM2 42h2v1h-2zM14 42h1v1h-1zM24 42h1v1h-1zM26 42h2v1h-2zM32 42h1v1h-1zM35 42h1v1h-1zM40 42h1v1h-1zM49 42h1v1h-1zM54 42h1v1h-1zM60 42h3v1h-3zM1 43h1v1h-1zM4 43h1v1h-1zM6 43h1v1h-1zM8 43h1v1h-1zM11 43h1v1h-1zM14 43h1v1h-1zM17 43h3v1h-3zM27 43h1v1h-1zM31 43h1v1h-1zM33 43h2v1h-2zM36 43h1v1h-1zM39 43h2v1h-2zM44 43h2v1h-2zM49 43h1v1h-1zM60 43h1v1h-1zM9 44h1v1h-1zM11 44h1v1h-1zM14 44h1v1h-1zM19 44h2v1h-2zM24 44h1v1h-1zM31 44h1v1h-1zM33 44h2v1h-2zM36 44h1v1h-1zM42 44h1v1h-1zM49 44h1v1h-1zM55 44h2v1h-2zM58 44h1v1h-1zM6 45h1v1h-1zM9 45h2v1h-2zM15 45h2v1h-2zM19 45h1v1h-1zM29 45h1v1h-1zM32 45h1v1h-1zM35 45h1v1h-1zM37 45h1v1h-1zM43 45h1v1h-1zM47 45h1v1h-1zM55 45h1v1h-1zM57 45h1v1h-1zM63 45h1v1h-1zM0 46h2v1h-2zM8 46h2v1h-2zM14 46h1v1h-1zM22 46h2v1h-2zM28 46h2v1h-2zM31 46h1v1h-1zM36 46h1v1h-1zM38 46h1v1h-1zM46 46h2v1h-2zM51 46h3v1h-3zM55 46h4v1h-4zM60 46h1v1h-1zM9 47h1v1h-1zM12 47h1v1h-1zM15 47h1v1h-1zM20 47h1v1h-1zM22 47h1v1h-1zM30 47h2v1h-2zM40 47h1v1h-1zM44 47h1v1h-1zM47 47h1v1h-1zM51 47h1v1h-1zM53 47h1v1h-1zM57 47h2v1h-2zM60 47h1v1h-1zM62 47h2v1h-2zM0 48h1v1h-1zM3 48h1v1h-1zM6 48h1v1h-1zM16 48h1v1h-1zM20 48h1v1h-1zM28 48h1v1h-1zM42 48h1v1h-1zM47 48h2v1h-2zM51 48h1v1h-1zM53 48h1v1h-1zM62 48h2v1h-2zM1 49h1v1h-1zM3 49h1v1h-1zM10 49h2v1h-2zM20 49h1v1h-1zM24 49h1v1h-1zM27 49h1v1h-1zM31 49h1v1h-1zM37 49h1v1h-1zM43 49h1v1h-1zM46 49h2v1h-2zM54 49h3v1h-3zM58 49h1v1h-1zM60 49h1v1h-1zM62 49h1v1h-1zM2 50h2v1h-2zM10 50h1v1h-1zM14 50h1v1h-1zM16 50h2v1h-2zM22 50h1v1h-1zM26 50h2v1h-2zM34 50h1v1h-1zM38 50h1v1h-1zM40 50h1v1h-1zM42 50h2v1h-2zM45 50h1v1h-1zM48 50h1v1h-1zM50 50h1v1h-1zM52 50h1v1h-1zM62 50h1v1h-1zM7 51h2v1h-2zM15 51h1v1h-1zM19 51h1v1h-1zM21 51h1v1h-1zM27 51h1v1h-1zM31 51h1v1h-1zM33 51h1v1h-1zM36 51h2v1h-2zM39 51h1v1h-1zM46 51h2v1h-2zM51 51h1v1h-1zM3 52h2v1h-2zM9 52h1v1h-1zM15 52h2v1h-2zM20 52h2v1h-2zM24 52h1v1h-1zM27 52h1v1h-1zM32 52h1v1h-1zM35 52h1v1h-1zM38 52h1v1h-1zM40 52h2v1h-2zM47 52h1v1h-1zM50 52h1v1h-1zM53 52h2v1h-2zM60 52h1v1h-1zM5 53h2v1h-2zM12 53h1v1h-1zM14 53h1v1h-1zM16 53h1v1h-1zM23 53h1v1h-1zM27 53h1v1h-1zM34 53h1v1h-1zM36 53h2v1h-2zM39 53h1v1h-1zM41 53h1v1h-1zM58 53h1v1h-1zM60 53h1v1h-1zM8 54h1v1h-1zM16 54h1v1h-1zM20 54h2v1h-2zM26 54h1v1h-1zM33 54h1v1h-1zM36 54h1v1h-1zM42 54h1v1h-1zM44 54h3v1h-3zM49 54h2v1h-2zM55 54h1v1h-1zM5 55h1v1h-1zM11 55h1v1h-1zM15 55h1v1h-1zM17 55h1v1h-1zM19 55h2v1h-2zM24 55h1v1h-1zM26 55h1v1h-1zM28 55h2v1h-2zM32 55h1v1h-1zM40 55h1v1h-1zM45 55h1v1h-1zM51 55h1v1h-1zM61 55h1v1h-1zM63 55h1v1h-1zM0 56h1v1h-1zM3 56h1v1h-1zM6 56h2v1h-2zM9 56h1v1h-1zM11 56h2v1h-2zM14 56h1v1h-1zM17 56h1v1h-1zM24 56h1v1h-1zM27 56h3v1h-3zM31 56h1v1h-1zM34 56h3v1h-3zM41 56h2v1h-2zM45 56h1v1h-1zM47 56h1v1h-1zM52 56h1v1h-1zM61 56h1v1h-1zM5 57h2v1h-2zM8 57h1v1h-1zM15 57h1v1h-1zM18 57h1v1h-1zM21 57h1v1h-1zM24 57h1v1h-1zM27 57h1v1h-1zM33 57h1v1h-1zM39 57h2v1h-2zM52 57h2v1h-2zM59 57h1v1h-1zM0 58h2v1h-2zM3 58h4v1h-4zM13 58h2v1h-2zM17 58h2v1h-2zM26 58h1v1h-1zM32 58h1v1h-1zM35 58h1v1h-1zM37 58h1v1h-1zM50 58h1v1h-1zM55 58h2v1h-2zM58 58h1v1h-1zM63 58h1v1h-1zM7 59h1v1h-1zM12 59h1v1h-1zM16 59h1v1h-1zM25 59h1v1h-1zM29 59h1v1h-1zM38 59h3v1h-3zM45 59h2v1h-2zM50 59h1v1h-1zM52 59h4v1h-4zM58 59h1v1h-1zM60 59h1v1h-1zM62 59h2v1h-2zM3 60h1v1h-1zM8 60h1v1h-1zM15 60h2v1h-2zM26 60h2v1h-2zM34 60h1v1h-1zM42 60h1v1h-1zM46 60h2v1h-2zM53 60h3v1h-3zM1 61h2v1h-2zM6 61h1v1h-1zM18 61h1v1h-1zM21 61h1v1h-1zM24 61h2v1h-2zM28 61h1v1h-1zM31 61h1v1h-1zM34 61h1v1h-1zM38 61h1v1h-1zM43 61h3v1h-3zM54 61h1v1h-1zM57 61h1v1h-1zM60 61h1v1h-1zM1 62h1v1h-1zM3 62h1v1h-1zM11 62h1v1h-1zM14 62h1v1h-1zM16 62h1v1h-1zM20 62h1v1h-1zM28 62h2v1h-2zM32 62h2v1h-2zM40 62h1v1h-1zM43 62h2v1h-2zM57 62h2v1h-2zM0 63h1v1h-1zM7 63h1v1h-1zM18 63h1v1h-1zM29 63h1v1h-1zM31 63h1v1h-1zM33 63h1v1h-1zM35 63h1v1h-1zM41 63h1v1h-1zM56 63h3v1h-3zM61 63h1v1h-1z" />
  <path opacity="0.7" d="M1 0h1v1h-1zM4 0h2v1h-2zM7 0h3v1h-3zM15 0h2v1h-2zM18 0h4v1h-4zM25 0h2v1h-2zM37 0h1v1h-1zM49 0h1v1h-1zM57 0h2v1h-2zM61 0h1v1h-1zM0 1h1v1h-1zM6 1h1v1h-1zM9 1h1v1h-1zM15 1h1v1h-1zM20 1h1v1h-1zM25 1h1v1h-1zM28 1h1v1h-1zM32 1h1v1h-1zM34 1h2v1h-2zM39 1h1v1h-1zM45 1h1v1h-1zM47 1h1v1h-1zM50 1h1v1h-1zM59 1h1v1h-1zM62 1h2v1h-2zM2 2h3v1h-3zM8 2h1v1h-1zM12 2h1v1h-1zM14 2h2v1h-2zM17 2h1v1h-1zM20 2h1v1h-1zM23 2h1v1h-1zM25 2h1v1h-1zM27 2h1v1h-1zM37 2h2v1h-2zM44 2h1v1h-1zM51 2h1v1h-1zM55 2h1v1h-1zM59 2h4v1h-4zM2 3h1v1h-1zM4 3h1v1h-1zM6 3h1v1h-1zM14 3h1v1h-1zM16 3h1v1h-1zM19 3h3v1h-3zM30 3h3v1h-3zM34 3h1v1h-1zM40 3h1v1h-1zM48 3h1v1h-1zM56 3h1v1h-1zM0 4h1v1h-1zM2 4h1v1h-1zM4 4h1v1h-1zM14 4h1v1h-1zM17 4h1v1h-1zM24 4h1v1h-1zM29 4h1v1h-1zM32 4h1v1h-1zM34 4h1v1h-1zM36 4h1v1h-1zM40 4h1v1h-1zM45 4h1v1h-1zM48 4h2v1h-2zM56 4h2v1h-2zM60 4h1v1h-1zM62 4h1v1h-1zM0 5h1v1h-1zM9 5h1v1h-1zM11 5h2v1h-2zM15 5h1v1h-1zM23 5h1v1h-1zM27 5h3v1h-3zM31 5h1v1h-1zM38 5h1v1h-1zM42 5h2v1h-2zM53 5h1v1h-1zM55 5h1v1h-1zM60 5h1v1h-1zM3 6h1v1h-1zM5 6h2v1h-2zM9 6h1v1h-1zM11 6h1v1h-1zM13 6h2v1h-2zM20 6h1v1h-1zM27 6h1v1h-1zM29 6h2v1h-2zM41 6h1v1h-1zM46 6h2v1h-2zM49 6h1v1h-1zM52 6h1v1h-1zM54 6h3v1h-3zM59 6h2v1h-2zM1 7h1v1h-1zM4 7h2v1h-2zM11 7h1v1h-1zM17 7h2v1h-2zM21 7h1v1h-1zM24 7h2v1h-2zM30 7h1v1h-1zM33 7h1v1h-1zM37 7h2v1h-2zM48 7h1v1h-1zM52 7h1v1h-1zM59 7h1v1h-1zM62 7h1v1h-1zM1 8h1v1h-1zM8 8h1v1h-1zM11 8h3v1h-3zM18 8h1v1h-1zM21 8h1v1h-1zM24 8h1v1h-1zM29 8h1v1h-1zM31 8h1v1h-1zM38 8h1v1h-1zM44 8h2v1h-2zM52 8h1v1h-1zM55 8h1v1h-1zM57 8h1v1h-1zM3 9h1v1h-1zM7 9h1v1h-1zM10 9h1v1h-1zM15 9h1v1h-1zM17 9h1v1h-1zM19 9h1v1h-1zM21 9h1v1h-1zM27 9h1v1h-1zM30 9h1v1h-1zM35 9h1v1h-1zM45 9h1v1h-1zM50 9h1v1h-1zM52 9h3v1h-3zM58 9h2v1h-2zM62 9h2v1h-2zM6 10h1v1h-1zM11 10h2v1h-2zM18 10h1v1h-1zM21 10h1v1h-1zM23 10h1v1h-1zM28 10h1v1h-1zM30 10h2v1h-2zM38 10h1v1h-1zM49 10h1v1h-1zM57 10h2v1h-2zM62 10h1v1h-1zM0 11h1v1h-1zM7 11h2v1h-2zM12 11h1v1h-1zM15 11h1v1h-1zM18 11h1v1h-1zM20 11h1v1h-1zM23 11h3v1h-3zM28 11h1v1h-1zM30 11h1v1h-1zM33 11h1v1h-1zM43 11h1v1h-1zM47 11h1v1h-1zM50 11h1v1h-1zM52 11h1v1h-1zM54 11h1v1h-1zM59 11h2v1h-2zM62 11h1v1h-1zM0 12h1v1h-1zM3 12h2v1h-2zM7 12h2v1h-2zM10 12h1v1h-1zM12 12h2v1h-2zM15 12h1v1h-1zM19 12h1v1h-1zM23 12h2v1h-2zM26 12h2v1h-2zM31 12h1v1h-1zM40 12h1v1h-1zM48 12h5v1h-5zM55 12h1v1h-1zM62 12h2v1h-2zM5 13h2v1h-2zM15 13h1v1h-1zM19 13h1v1h-1zM21 13h1v1h-1zM29 13h1v1h-1zM33 13h2v1h-2zM38 13h1v1h-1zM41 13h2v1h-2zM44 13h1v1h-1zM47 13h3v1h-3zM54 13h1v1h-1zM60 13h1v1h-1zM1 14h1v1h-1zM9 14h3v1h-3zM16 14h3v1h-3zM20 14h1v1h-1zM33 14h1v1h-1zM38 14h1v1h-1zM44 14h2v1h-2zM60 14h1v1h-1zM62 14h1v1h-1zM0 15h1v1h-1zM3 15h1v1h-1zM6 15h2v1h-2zM9 15h2v1h-2zM13 15h1v1h-1zM16 15h1v1h-1zM28 15h2v1h-2zM32 15h1v1h-1zM34 15h1v1h-1zM36 15h1v1h-1zM39 15h1v1h-1zM41 15h2v1h-2zM46 15h1v1h-1zM52 15h1v1h-1zM54 15h1v1h-1zM60 15h2v1h-2zM2 16h3v1h-3zM6 16h3v1h-3zM10 16h1v1h-1zM19 16h1v1h-1zM34 16h3v1h-3zM38 16h1v1h-1zM43 16h2v1h-2zM48 16h1v1h-1zM52 16h2v1h-2zM1 17h1v1h-1zM3 17h1v1h-1zM14 17h1v1h-1zM17 17h1v1h-1zM21 17h1v1h-1zM28 17h1v1h-1zM32 17h1v1h-1zM35 17h1v1h-1zM37 17h4v1h-4zM49 17h1v1h-1zM60 17h1v1h-1zM20 18h1v1h-1zM23 18h4v1h-4zM29 18h1v1h-1zM33 18h2v1h-2zM40 18h2v1h-2zM50 18h1v1h-1zM56 18h2v1h-2zM62 18h1v1h-1zM14 19h1v1h-1zM16 19h1v1h-1zM25 19h1v1h-1zM27 19h2v1h-2zM34 19h1v1h-1zM45 19h2v1h-2zM49 19h1v1h-1zM52 19h3v1h-3zM56 19h1v1h-1zM1 20h2v1h-2zM4 20h1v1h-1zM9 20h1v1h-1zM12 20h1v1h-1zM18 20h1v1h-1zM22 20h1v1h-1zM32 20h1v1h-1zM35 20h1v1h-1zM39 20h1v1h-1zM44 20h1v1h-1zM46 20h1v1h-1zM53 20h4v1h-4zM58 20h1v1h-1zM60 20h1v1h-1zM2 21h1v1h-1zM6 21h1v1h-1zM8 21h1v1h-1zM22 21h1v1h-1zM28 21h1v1h-1zM44 21h1v1h-1zM48 21h1v1h-1zM50 21h1v1h-1zM52 21h1v1h-1zM56 21h1v1h-1zM7 22h1v1h-1zM12 22h1v1h-1zM17 22h1v1h-1zM20 22h1v1h-1zM23 22h1v1h-1zM26 22h1v1h-1zM32 22h1v1h-1zM35 22h1v1h-1zM41 22h1v1h-1zM45 22h1v1h-1zM47 22h1v1h-1zM50 22h1v1h-1zM54 22h1v1h-1zM61 22h1v1h-1zM63 22h1v1h-1zM1 23h3v1h-3zM6 23h1v1h-1zM10 23h2v1h-2zM24 23h2v1h-2zM30 23h1v1h-1zM32 23h1v1h-1zM35 23h2v1h-2zM39 23h1v1h-1zM41 23h1v1h-1zM47 23h1v1h-1zM51 23h1v1h-1zM62 23h2v1h-2zM0 24h1v1h-1zM7 24h1v1h-1zM9 24h2v1h-2zM14 24h1v1h-1zM28 24h1v1h-1zM33 24h1v1h-1zM39 24h1v1h-1zM41 24h1v1h-1zM44 24h1v1h-1zM48 24h1v1h-1zM53 24h2v1h-2zM56 24h1v1h-1zM58 24h1v1h-1zM61 24h1v1h-1zM1 25h1v1h-1zM4 25h2v1h-2zM8 25h1v1h-1zM14 25h1v1h-1zM21 25h2v1h-2zM25 25h1v1h-1zM38 25h1v1h-1zM41 25h2v1h-2zM44 25h1v1h-1zM58 25h1v1h-1zM63 25h1v1h-1zM1 26h2v1h-2zM4 26h1v1h-1zM6 26h1v1h-1zM10 26h1v1h-1zM12 26h2v1h-2zM20 26h3v1h-3zM28 26h1v1h-1zM30 26h1v1h-1zM35 26h1v1h-1zM41 26h3v1h-3zM46 26h1v1h-1zM48 26h2v1h-2zM52 26h2v1h-2zM58 26h1v1h-1zM61 26h1v1h-1zM0 27h1v1h-1zM2 27h1v1h-1zM14 27h1v1h-1zM24 27h1v1h-1zM26 27h2v1h-2zM30 27h1v1h-1zM32 27h1v1h-1zM36 27h1v1h-1zM39 27h1v1h-1zM54 27h1v1h-1zM61 27h1v1h-1zM0 28h1v1h-1zM3 28h2v1h-2zM9 28h1v1h-1zM12 28h1v1h-1zM14 28h1v1h-1zM28 28h1v1h-1zM30 28h1v1h-1zM41 28h2v1h-2zM45 28h2v1h-2zM50 28h1v1h-1zM52 28h1v1h-1zM57 28h1v1h-1zM60 28h1v1h-1zM1 29h2v1h-2zM6 29h1v1h-1zM10 29h1v1h-1zM19 29h1v1h-1zM22 29h1v1h-1zM30 29h1v1h-1zM41 29h1v1h-1zM45 29h2v1h-2zM52 29h1v1h-1zM58 29h1v1h-1zM60 29h1v1h-1zM0 30h1v1h-1zM4 30h1v1h-1zM9 30h1v1h-1zM15 30h1v1h-1zM17 30h1v1h-1zM20 30h1v1h-1zM23 30h1v1h-1zM29 30h1v1h-1zM33 30h1v1h-1zM37 30h1v1h-1zM44 30h1v1h-1zM52 30h1v1h-1zM59 30h1v1h-1zM0 31h1v1h-1zM12 31h1v1h-1zM15 31h1v1h-1zM17 31h1v1h-1zM19 31h1v1h-1zM22 31h1v1h-1zM30 31h1v1h-1zM38 31h1v1h-1zM43 31h1v1h-1zM47 31h1v1h-1zM54 31h1v1h-1zM3 32h1v1h-1zM8 32h3v1h-3zM14 32h1v1h-1zM16 32h2v1h-2zM42 32h2v1h-2zM48 32h1v1h-1zM52 32h2v1h-2zM58 32h1v1h-1zM4 33h1v1h-1zM6 33h1v1h-1zM17 33h1v1h-1zM19 33h1v1h-1zM23 33h1v1h-1zM25 33h2v1h-2zM31 33h1v1h-1zM33 33h1v1h-1zM35 33h1v1h-1zM43 33h1v1h-1zM51 33h1v1h-1zM54 33h1v1h-1zM57 33h1v1h-1zM0 34h2v1h-2zM9 34h1v1h-1zM12 34h1v1h-1zM18 34h1v1h-1zM23 34h1v1h-1zM27 34h2v1h-2zM30 34h3v1h-3zM34 34h1v1h-1zM39 34h1v1h-1zM43 34h2v1h-2zM48 34h1v1h-1zM57 34h1v1h-1zM59 34h1v1h-1zM62 34h2v1h-2zM1 35h2v1h-2zM4 35h1v1h-1zM8 35h1v1h-1zM13 35h3v1h-3zM20 35h1v1h-1zM22 35h2v1h-2zM26 35h2v1h-2zM30 35h1v1h-1zM33 35h1v1h-1zM39 35h1v1h-1zM42 35h2v1h-2zM50 35h1v1h-1zM53 35h1v1h-1zM55 35h1v1h-1zM60 35h1v1h-1zM62 35h1v1h-1zM0 36h1v1h-1zM10 36h1v1h-1zM12 36h1v1h-1zM14 36h2v1h-2zM26 36h1v1h-1zM28 36h1v1h-1zM30 36h1v1h-1zM32 36h1v1h-1zM35 36h1v1h-1zM47 36h2v1h-2zM50 36h1v1h-1zM55 36h1v1h-1zM1 37h1v1h-1zM8 37h2v1h-2zM11 37h1v1h-1zM18 37h1v1h-1zM21 37h2v1h-2zM29 37h1v1h-1zM34 37h1v1h-1zM36 37h1v1h-1zM42 37h3v1h-3zM53 37h3v1h-3zM58 37h1v1h-1zM62 37h2v1h-2zM0 38h1v1h-1zM14 38h2v1h-2zM22 38h1v1h-1zM24 38h1v1h-1zM28 38h1v1h-1zM30 38h1v1h-1zM32 38h2v1h-2zM45 38h1v1h-1zM48 38h3v1h-3zM54 38h1v1h-1zM62 38h1v1h-1zM3 39h2v1h-2zM11 39h1v1h-1zM14 39h1v1h-1zM17 39h4v1h-4zM23 39h1v1h-1zM32 39h1v1h-1zM34 39h3v1h-3zM39 39h1v1h-1zM45 39h2v1h-2zM51 39h1v1h-1zM54 39h1v1h-1zM57 39h1v1h-1zM59 39h1v1h-1zM62 39h1v1h-1zM2 40h1v1h-1zM8 40h1v1h-1zM12 40h1v1h-1zM17 40h1v1h-1zM22 40h1v1h-1zM24 40h1v1h-1zM31 40h1v1h-1zM33 40h1v1h-1zM35 40h1v1h-1zM37 40h1v1h-1zM45 40h1v1h-1zM50 40h1v1h-1zM54 40h1v1h-1zM60 40h2v1h-2zM2 41h2v1h-2zM12 41h1v1h-1zM16 41h2v1h-2zM20 41h1v1h-1zM39 41h1v1h-1zM42 41h2v1h-2zM45 41h1v1h-1zM47 41h2v1h-2zM51 41h2v1h-2zM1 42h1v1h-1zM5 42h1v1h-1zM9 42h1v1h-1zM16 42h1v1h-1zM19 42h1v1h-1zM25 42h1v1h-1zM34 42h1v1h-1zM39 42h1v1h-1zM41 42h2v1h-2zM45 42h3v1h-3zM57 42h3v1h-3zM63 42h1v1h-1zM3 43h1v1h-1zM13 43h1v1h-1zM16 43h1v1h-1zM25 43h1v1h-1zM41 43h3v1h-3zM47 43h2v1h-2zM50 43h2v1h-2zM53 43h1v1h-1zM57 43h1v1h-1zM59 43h1v1h-1zM1 44h1v1h-1zM5 44h1v1h-1zM10 44h1v1h-1zM13 44h1v1h-1zM17 44h1v1h-1zM23 44h1v1h-1zM25 44h1v1h-1zM28 44h1v1h-1zM30 44h1v1h-1zM35 44h1v1h-1zM38 44h1v1h-1zM51 44h2v1h-2zM61 44h3v1h-3zM3 45h1v1h-1zM12 45h1v1h-1zM14 45h1v1h-1zM17 45h1v1h-1zM20 45h1v1h-1zM26 45h3v1h-3zM31 45h1v1h-1zM38 45h2v1h-2zM48 45h1v1h-1zM50 45h1v1h-1zM52 45h2v1h-2zM61 45h1v1h-1zM6 46h1v1h-1zM16 46h1v1h-1zM18 46h3v1h-3zM26 46h1v1h-1zM30 46h1v1h-1zM40 46h1v1h-1zM45 46h1v1h-1zM49 46h1v1h-1zM59 46h1v1h-1zM62 46h1v1h-1zM3 47h2v1h-2zM10 47h2v1h-2zM21 47h1v1h-1zM32 47h2v1h-2zM36 47h2v1h-2zM39 47h1v1h-1zM41 47h1v1h-1zM61 47h1v1h-1zM4 48h1v1h-1zM15 48h1v1h-1zM22 48h1v1h-1zM25 48h1v1h-1zM29 48h1v1h-1zM31 48h2v1h-2zM34 48h1v1h-1zM39 48h3v1h-3zM43 48h1v1h-1zM45 48h1v1h-1zM50 48h1v1h-1zM56 48h1v1h-1zM58 48h2v1h-2zM2 49h1v1h-1zM5 49h1v1h-1zM8 49h2v1h-2zM18 49h1v1h-1zM22 49h1v1h-1zM29 49h1v1h-1zM35 49h1v1h-1zM40 49h1v1h-1zM44 49h2v1h-2zM49 49h1v1h-1zM51 49h1v1h-1zM57 49h1v1h-1zM59 49h1v1h-1zM6 50h1v1h-1zM8 50h1v1h-1zM11 50h3v1h-3zM15 50h1v1h-1zM19 50h1v1h-1zM28 50h1v1h-1zM35 50h1v1h-1zM49 50h1v1h-1zM51 50h1v1h-1zM55 50h2v1h-2zM3 51h3v1h-3zM13 51h1v1h-1zM20 51h1v1h-1zM23 51h2v1h-2zM26 51h1v1h-1zM28 51h1v1h-1zM32 51h1v1h-1zM34 51h1v1h-1zM40 51h1v1h-1zM43 51h1v1h-1zM49 51h1v1h-1zM53 51h3v1h-3zM59 51h1v1h-1zM63 51h1v1h-1zM5 52h1v1h-1zM10 52h2v1h-2zM14 52h1v1h-1zM17 52h1v1h-1zM28 52h2v1h-2zM45 52h1v1h-1zM52 52h1v1h-1zM56 52h2v1h-2zM62 52h1v1h-1zM2 53h2v1h-2zM9 53h1v1h-1zM13 53h1v1h-1zM19 53h1v1h-1zM30 53h1v1h-1zM32 53h2v1h-2zM44 53h3v1h-3zM48 53h1v1h-1zM52 53h1v1h-1zM57 53h1v1h-1zM62 53h2v1h-2zM3 54h1v1h-1zM10 54h1v1h-1zM13 54h1v1h-1zM15 54h1v1h-1zM17 54h3v1h-3zM22 54h1v1h-1zM28 54h1v1h-1zM30 54h1v1h-1zM39 54h1v1h-1zM51 54h2v1h-2zM60 54h1v1h-1zM6 55h4v1h-4zM12 55h3v1h-3zM18 55h1v1h-1zM23 55h1v1h-1zM34 55h1v1h-1zM36 55h1v1h-1zM53 55h1v1h-1zM2 56h1v1h-1zM5 56h1v1h-1zM8 56h1v1h-1zM10 56h1v1h-1zM13 56h1v1h-1zM18 56h1v1h-1zM22 56h1v1h-1zM30 56h1v1h-1zM32 56h1v1h-1zM40 56h1v1h-1zM49 56h3v1h-3zM54 56h3v1h-3zM58 56h1v1h-1zM63 56h1v1h-1zM7 57h1v1h-1zM9 57h1v1h-1zM14 57h1v1h-1zM17 57h1v1h-1zM19 57h1v1h-1zM26 57h1v1h-1zM31 57h2v1h-2zM34 57h1v1h-1zM38 57h1v1h-1zM41 57h2v1h-2zM58 57h1v1h-1zM62 57h2v1h-2zM8 58h1v1h-1zM10 58h2v1h-2zM21 58h2v1h-2zM25 58h1v1h-1zM27 58h1v1h-1zM29 58h3v1h-3zM36 58h1v1h-1zM49 58h1v1h-1zM52 58h1v1h-1zM60 58h3v1h-3zM1 59h5v1h-5zM8 59h1v1h-1zM10 59h2v1h-2zM13 59h1v1h-1zM24 59h1v1h-1zM26 59h1v1h-1zM28 59h1v1h-1zM42 59h1v1h-1zM56 59h1v1h-1zM61 59h1v1h-1zM0 60h1v1h-1zM2 60h1v1h-1zM5 60h1v1h-1zM9 60h1v1h-1zM11 60h1v1h-1zM18 60h1v1h-1zM21 60h3v1h-3zM28 60h3v1h-3zM32 60h1v1h-1zM35 60h1v1h-1zM37 60h1v1h-1zM39 60h1v1h-1zM41 60h1v1h-1zM59 60h1v1h-1zM3 61h1v1h-1zM5 61h1v1h-1zM7 61h1v1h-1zM9 61h2v1h-2zM26 61h1v1h-1zM30 61h1v1h-1zM32 61h1v1h-1zM35 61h1v1h-1zM37 61h1v1h-1zM41 61h1v1h-1zM46 61h1v1h-1zM49 61h2v1h-2zM62 61h1v1h-1zM2 62h1v1h-1zM4 62h2v1h-2zM7 62h1v1h-1zM13 62h1v1h-1zM15 62h1v1h-1zM18 62h1v1h-1zM21 62h2v1h-2zM25 62h1v1h-1zM35 62h1v1h-1zM38 62h1v1h-1zM42 62h1v1h-1zM47 62h2v1h-2zM50 62h1v1h-1zM60 62h1v1h-1zM1 63h3v1h-3zM6 63h1v1h-1zM8 63h1v1h-1zM12 63h2v1h-2zM15 63h1v1h-1zM20 63h1v1h-1zM22 63h2v1h-2zM25 63h2v1h-2zM30 63h1v1h-1zM39 63h1v1h-1zM45 63h1v1h-1zM49 63h1v1h-1zM54 63h1v1h-1zM63 63h1v1h-1z" />
  <path opacity="1" d="M6 0h1v1h-1zM12 0h1v1h-1zM22 0h1v1h-1zM28 0h2v1h-2zM32 0h1v1h-1zM38 0h2v1h-2zM44 0h1v1h-1zM50 0h1v1h-1zM53 0h1v1h-1zM55 0h2v1h-2zM2 1h1v1h-1zM5 1h1v1h-1zM12 1h1v1h-1zM16 1h1v1h-1zM23 1h1v1h-1zM33 1h1v1h-1zM38 1h1v1h-1zM42 1h1v1h-1zM44 1h1v1h-1zM49 1h1v1h-1zM53 1h1v1h-1zM55 1h2v1h-2zM58 1h1v1h-1zM5 2h3v1h-3zM11 2h1v1h-1zM31 2h5v1h-5zM41 2h1v1h-1zM46 2h1v1h-1zM48 2h1v1h-1zM58 2h1v1h-1zM63 2h1v1h-1zM5 3h1v1h-1zM7 3h1v1h-1zM11 3h1v1h-1zM18 3h1v1h-1zM23 3h1v1h-1zM27 3h1v1h-1zM35 3h2v1h-2zM42 3h1v1h-1zM45 3h1v1h-1zM49 3h1v1h-1zM51 3h1v1h-1zM58 3h3v1h-3zM1 4h1v1h-1zM6 4h1v1h-1zM18 4h1v1h-1zM23 4h1v1h-1zM25 4h1v1h-1zM30 4h1v1h-1zM41 4h1v1h-1zM44 4h1v1h-1zM46 4h2v1h-2zM50 4h1v1h-1zM52 4h1v1h-1zM54 4h1v1h-1zM63 4h1v1h-1zM2 5h1v1h-1zM7 5h1v1h-1zM13 5h2v1h-2zM16 5h1v1h-1zM18 5h1v1h-1zM32 5h1v1h-1zM39 5h1v1h-1zM41 5h1v1h-1zM46 5h2v1h-2zM50 5h1v1h-1zM54 5h1v1h-1zM58 5h2v1h-2zM63 5h1v1h-1zM1 6h1v1h-1zM4 6h1v1h-1zM10 6h1v1h-1zM12 6h1v1h-1zM21 6h3v1h-3zM25 6h1v1h-1zM36 6h1v1h-1zM39 6h1v1h-1zM42 6h3v1h-3zM58 6h1v1h-1zM6 7h4v1h-4zM20 7h1v1h-1zM22 7h2v1h-2zM27 7h1v1h-1zM31 7h1v1h-1zM34 7h1v1h-1zM36 7h1v1h-1zM40 7h1v1h-1zM44 7h4v1h-4zM51 7h1v1h-1zM54 7h2v1h-2zM2 8h3v1h-3zM6 8h1v1h-1zM10 8h1v1h-1zM16 8h1v1h-1zM23 8h1v1h-1zM26 8h1v1h-1zM28 8h1v1h-1zM39 8h2v1h-2zM42 8h1v1h-1zM47 8h1v1h-1zM53 8h1v1h-1zM0 9h1v1h-1zM2 9h1v1h-1zM4 9h1v1h-1zM6 9h1v1h-1zM18 9h1v1h-1zM20 9h1v1h-1zM23 9h1v1h-1zM28 9h1v1h-1zM32 9h1v1h-1zM40 9h2v1h-2zM46 9h3v1h-3zM57 9h1v1h-1zM1 10h2v1h-2zM5 10h1v1h-1zM7 10h2v1h-2zM10 10h1v1h-1zM22 10h1v1h-1zM24 10h3v1h-3zM29 10h1v1h-1zM36 10h2v1h-2zM40 10h1v1h-1zM44 10h2v1h-2zM50 10h3v1h-3zM54 10h1v1h-1zM61 10h1v1h-1zM1 11h1v1h-1zM4 11h1v1h-1zM6 11h1v1h-1zM10 11h2v1h-2zM26 11h1v1h-1zM44 11h3v1h-3zM57 11h1v1h-1zM61 11h1v1h-1zM1 12h1v1h-1zM6 12h1v1h-1zM9 12h1v1h-1zM16 12h1v1h-1zM37 12h1v1h-1zM41 12h2v1h-2zM53 12h2v1h-2zM59 12h3v1h-3zM2 13h1v1h-1zM4 13h1v1h-1zM7 13h4v1h-4zM13 13h1v1h-1zM16 13h1v1h-1zM25 13h2v1h-2zM31 13h1v1h-1zM50 13h1v1h-1zM53 13h1v1h-1zM56 13h1v1h-1zM58 13h1v1h-1zM61 13h1v1h-1zM3 14h1v1h-1zM8 14h1v1h-1zM13 14h1v1h-1zM15 14h1v1h-1zM21 14h2v1h-2zM27 14h1v1h-1zM29 14h1v1h-1zM31 14h1v1h-1zM36 14h1v1h-1zM39 14h2v1h-2zM46 14h5v1h-5zM54 14h1v1h-1zM56 14h2v1h-2zM59 14h1v1h-1zM61 14h1v1h-1zM1 15h1v1h-1zM12 15h1v1h-1zM15 15h1v1h-1zM18 15h1v1h-1zM21 15h1v1h-1zM23 15h4v1h-4zM43 15h2v1h-2zM47 15h4v1h-4zM56 15h1v1h-1zM58 15h2v1h-2zM0 16h1v1h-1zM11 16h2v1h-2zM14 16h2v1h-2zM21 16h1v1h-1zM24 16h1v1h-1zM26 16h1v1h-1zM33 16h1v1h-1zM39 16h2v1h-2zM42 16h1v1h-1zM47 16h1v1h-1zM49 16h1v1h-1zM51 16h1v1h-1zM54 16h1v1h-1zM57 16h3v1h-3zM61 16h2v1h-2zM4 17h2v1h-2zM7 17h1v1h-1zM10 17h1v1h-1zM15 17h1v1h-1zM20 17h1v1h-1zM23 17h1v1h-1zM34 17h1v1h-1zM41 17h1v1h-1zM43 17h1v1h-1zM51 17h1v1h-1zM57 17h2v1h-2zM61 17h1v1h-1zM7 18h2v1h-2zM11 18h2v1h-2zM14 18h1v1h-1zM17 18h1v1h-1zM21 18h1v1h-1zM28 18h1v1h-1zM31 18h1v1h-1zM42 18h1v1h-1zM45 18h1v1h-1zM52 18h1v1h-1zM63 18h1v1h-1zM0 19h1v1h-1zM4 19h1v1h-1zM6 19h1v1h-1zM8 19h1v1h-1zM12 19h1v1h-1zM18 19h2v1h-2zM29 19h2v1h-2zM32 19h1v1h-1zM42 19h1v1h-1zM50 19h1v1h-1zM58 19h1v1h-1zM61 19h1v1h-1zM11 20h1v1h-1zM13 20h3v1h-3zM17 20h1v1h-1zM19 20h1v1h-1zM30 20h1v1h-1zM34 20h1v1h-1zM36 20h1v1h-1zM38 20h1v1h-1zM48 20h1v1h-1zM51 20h1v1h-1zM4 21h1v1h-1zM10 21h1v1h-1zM12 21h1v1h-1zM19 21h2v1h-2zM26 21h2v1h-2zM30 21h1v1h-1zM41 21h1v1h-1zM46 21h2v1h-2zM53 21h1v1h-1zM61 21h1v1h-1zM63 21h1v1h-1zM1 22h1v1h-1zM13 22h1v1h-1zM16 22h1v1h-1zM24 22h2v1h-2zM33 22h1v1h-1zM43 22h2v1h-2zM48 22h2v1h-2zM52 22h1v1h-1zM5 23h1v1h-1zM7 23h2v1h-2zM13 23h2v1h-2zM16 23h3v1h-3zM22 23h1v1h-1zM27 23h1v1h-1zM29 23h1v1h-1zM40 23h1v1h-1zM45 23h2v1h-2zM49 23h2v1h-2zM55 23h1v1h-1zM59 23h3v1h-3zM6 24h1v1h-1zM11 24h1v1h-1zM13 24h1v1h-1zM17 24h3v1h-3zM21 24h1v1h-1zM25 24h1v1h-1zM27 24h1v1h-1zM36 24h1v1h-1zM40 24h1v1h-1zM42 24h1v1h-1zM46 24h2v1h-2zM50 24h1v1h-1zM52 24h1v1h-1zM55 24h1v1h-1zM60 24h1v1h-1zM2 25h1v1h-1zM7 25h1v1h-1zM12 25h2v1h-2zM15 25h1v1h-1zM17 25h1v1h-1zM20 25h1v1h-1zM23 25h2v1h-2zM26 25h1v1h-1zM29 25h1v1h-1zM32 25h2v1h-2zM35 25h3v1h-3zM39 25h1v1h-1zM43 25h1v1h-1zM50 25h1v1h-1zM54 25h2v1h-2zM57 25h1v1h-1zM59 25h3v1h-3zM3 26h1v1h-1zM7 26h1v1h-1zM9 26h1v1h-1zM11 26h1v1h-1zM15 26h1v1h-1zM18 26h1v1h-1zM23 26h1v1h-1zM34 26h1v1h-1zM36 26h1v1h-1zM40 26h1v1h-1zM44 26h2v1h-2zM47 26h1v1h-1zM50 26h1v1h-1zM57 26h1v1h-1zM59 26h1v1h-1zM3 27h1v1h-1zM5 27h1v1h-1zM8 27h3v1h-3zM16 27h1v1h-1zM23 27h1v1h-1zM28 27h2v1h-2zM33 27h1v1h-1zM35 27h1v1h-1zM37 27h1v1h-1zM43 27h2v1h-2zM46 27h1v1h-1zM56 27h2v1h-2zM59 27h2v1h-2zM62 27h2v1h-2zM7 28h1v1h-1zM15 28h1v1h-1zM21 28h1v1h-1zM24 28h1v1h-1zM26 28h2v1h-2zM31 28h2v1h-2zM37 28h1v1h-1zM39 28h1v1h-1zM43 28h2v1h-2zM48 28h2v1h-2zM54 28h1v1h-1zM59 28h1v1h-1zM62 28h1v1h-1zM0 29h1v1h-1zM4 29h1v1h-1zM9 29h1v1h-1zM15 29h1v1h-1zM17 29h2v1h-2zM21 29h1v1h-1zM26 29h1v1h-1zM28 29h1v1h-1zM33 29h1v1h-1zM35 29h1v1h-1zM39 29h1v1h-1zM50 29h1v1h-1zM53 29h2v1h-2zM57 29h1v1h-1zM63 29h1v1h-1zM6 30h3v1h-3zM10 30h2v1h-2zM22 30h1v1h-1zM25 30h1v1h-1zM28 30h1v1h-1zM32 30h1v1h-1zM35 30h1v1h-1zM39 30h1v1h-1zM42 30h1v1h-1zM45 30h1v1h-1zM47 30h1v1h-1zM49 30h1v1h-1zM51 30h1v1h-1zM55 30h1v1h-1zM57 30h1v1h-1zM61 30h1v1h-1zM63 30h1v1h-1zM2 31h3v1h-3zM8 31h1v1h-1zM11 31h1v1h-1zM13 31h1v1h-1zM16 31h1v1h-1zM23 31h1v1h-1zM32 31h1v1h-1zM34 31h1v1h-1zM39 31h2v1h-2zM44 31h1v1h-1zM48 31h1v1h-1zM50 31h2v1h-2zM53 31h1v1h-1zM60 31h1v1h-1zM62 31h2v1h-2zM0 32h2v1h-2zM5 32h1v1h-1zM7 32h1v1h-1zM11 32h2v1h-2zM21 32h2v1h-2zM31 32h1v1h-1zM35 32h1v1h-1zM41 32h1v1h-1zM45 32h1v1h-1zM50 32h1v1h-1zM60 32h1v1h-1zM62 32h1v1h-1zM0 33h1v1h-1zM8 33h1v1h-1zM12 33h1v1h-1zM16 33h1v1h-1zM20 33h1v1h-1zM22 33h1v1h-1zM28 33h3v1h-3zM32 33h1v1h-1zM36 33h3v1h-3zM42 33h1v1h-1zM49 33h1v1h-1zM53 33h1v1h-1zM55 33h1v1h-1zM58 33h2v1h-2zM3 34h2v1h-2zM6 34h3v1h-3zM17 34h1v1h-1zM19 34h1v1h-1zM21 34h1v1h-1zM35 34h2v1h-2zM38 34h1v1h-1zM42 34h1v1h-1zM46 34h1v1h-1zM52 34h2v1h-2zM56 34h1v1h-1zM58 34h1v1h-1zM61 34h1v1h-1zM3 35h1v1h-1zM6 35h1v1h-1zM11 35h2v1h-2zM31 35h2v1h-2zM36 35h1v1h-1zM38 35h1v1h-1zM41 35h1v1h-1zM48 35h1v1h-1zM52 35h1v1h-1zM61 35h1v1h-1zM63 35h1v1h-1zM1 36h1v1h-1zM7 36h2v1h-2zM29 36h1v1h-1zM34 36h1v1h-1zM40 36h1v1h-1zM42 36h1v1h-1zM44 36h1v1h-1zM52 36h2v1h-2zM0 37h1v1h-1zM2 37h1v1h-1zM6 37h2v1h-2zM13 37h2v1h-2zM19 37h1v1h-1zM23 37h1v1h-1zM26 37h1v1h-1zM28 37h1v1h-1zM31 37h3v1h-3zM38 37h1v1h-1zM40 37h2v1h-2zM56 37h2v1h-2zM61 37h1v1h-1zM1 38h1v1h-1zM7 38h1v1h-1zM9 38h1v1h-1zM11 38h1v1h-1zM17 38h1v1h-1zM21 38h1v1h-1zM23 38h1v1h-1zM27 38h1v1h-1zM39 38h1v1h-1zM42 38h1v1h-1zM44 38h1v1h-1zM52 38h2v1h-2zM56 38h1v1h-1zM59 38h1v1h-1zM63 38h1v1h-1zM2 39h1v1h-1zM5 39h2v1h-2zM8 39h1v1h-1zM15 39h1v1h-1zM29 39h1v1h-1zM33 39h1v1h-1zM43 39h2v1h-2zM53 39h1v1h-1zM60 39h1v1h-1zM63 39h1v1h-1zM3 40h1v1h-1zM6 40h2v1h-2zM10 40h2v1h-2zM15 40h1v1h-1zM18 40h2v1h-2zM39 40h2v1h-2zM46 40h1v1h-1zM49 40h1v1h-1zM51 40h2v1h-2zM55 40h1v1h-1zM0 41h1v1h-1zM5 41h3v1h-3zM13 41h2v1h-2zM26 41h2v1h-2zM31 41h1v1h-1zM34 41h2v1h-2zM37 41h1v1h-1zM40 41h1v1h-1zM44 41h1v1h-1zM46 41h1v1h-1zM49 41h2v1h-2zM63 41h1v1h-1zM0 42h1v1h-1zM4 42h1v1h-1zM6 42h3v1h-3zM20 42h4v1h-4zM30 42h1v1h-1zM33 42h1v1h-1zM36 42h1v1h-1zM38 42h1v1h-1zM44 42h1v1h-1zM50 42h4v1h-4zM56 42h1v1h-1zM0 43h1v1h-1zM5 43h1v1h-1zM9 43h1v1h-1zM12 43h1v1h-1zM15 43h1v1h-1zM21 43h1v1h-1zM23 43h1v1h-1zM26 43h1v1h-1zM29 43h1v1h-1zM38 43h1v1h-1zM46 43h1v1h-1zM58 43h1v1h-1zM61 43h1v1h-1zM0 44h1v1h-1zM7 44h1v1h-1zM12 44h1v1h-1zM16 44h1v1h-1zM22 44h1v1h-1zM26 44h2v1h-2zM32 44h1v1h-1zM37 44h1v1h-1zM39 44h3v1h-3zM50 44h1v1h-1zM54 44h1v1h-1zM57 44h1v1h-1zM59 44h2v1h-2zM4 45h2v1h-2zM7 45h2v1h-2zM21 45h1v1h-1zM24 45h2v1h-2zM36 45h1v1h-1zM42 45h1v1h-1zM44 45h1v1h-1zM46 45h1v1h-1zM59 45h1v1h-1zM3 46h1v1h-1zM5 46h1v1h-1zM7 46h1v1h-1zM12 46h1v1h-1zM15 46h1v1h-1zM21 46h1v1h-1zM24 46h1v1h-1zM32 46h3v1h-3zM39 46h1v1h-1zM42 46h1v1h-1zM44 46h1v1h-1zM48 46h1v1h-1zM50 46h1v1h-1zM63 46h1v1h-1zM1 47h2v1h-2zM8 47h1v1h-1zM13 47h2v1h-2zM25 47h1v1h-1zM29 47h1v1h-1zM43 47h1v1h-1zM45 47h1v1h-1zM50 47h1v1h-1zM52 47h1v1h-1zM54 47h1v1h-1zM2 48h1v1h-1zM7 48h5v1h-5zM13 48h1v1h-1zM17 48h1v1h-1zM19 48h1v1h-1zM21 48h1v1h-1zM24 48h1v1h-1zM33 48h1v1h-1zM35 48h2v1h-2zM38 48h1v1h-1zM49 48h1v1h-1zM52 48h1v1h-1zM60 48h2v1h-2zM7 49h1v1h-1zM12 49h1v1h-1zM14 49h4v1h-4zM19 49h1v1h-1zM21 49h1v1h-1zM26 49h1v1h-1zM33 49h2v1h-2zM36 49h1v1h-1zM41 49h2v1h-2zM50 49h1v1h-1zM52 49h2v1h-2zM61 49h1v1h-1zM63 49h1v1h-1zM1 50h1v1h-1zM4 50h1v1h-1zM7 50h1v1h-1zM18 50h1v1h-1zM21 50h1v1h-1zM23 50h3v1h-3zM31 50h2v1h-2zM37 50h1v1h-1zM39 50h1v1h-1zM53 50h2v1h-2zM60 50h2v1h-2zM63 50h1v1h-1zM10 51h1v1h-1zM12 51h1v1h-1zM14 51h1v1h-1zM30 51h1v1h-1zM35 51h1v1h-1zM38 51h1v1h-1zM41 51h1v1h-1zM52 51h1v1h-1zM56 51h3v1h-3zM62 51h1v1h-1zM1 52h2v1h-2zM8 52h1v1h-1zM12 52h2v1h-2zM26 52h1v1h-1zM34 52h1v1h-1zM37 52h1v1h-1zM39 52h1v1h-1zM42 52h2v1h-2zM51 52h1v1h-1zM1 53h1v1h-1zM4 53h1v1h-1zM10 53h2v1h-2zM18 53h1v1h-1zM20 53h3v1h-3zM26 53h1v1h-1zM28 53h1v1h-1zM38 53h1v1h-1zM47 53h1v1h-1zM50 53h1v1h-1zM54 53h3v1h-3zM59 53h1v1h-1zM61 53h1v1h-1zM0 54h3v1h-3zM4 54h1v1h-1zM11 54h1v1h-1zM23 54h3v1h-3zM27 54h1v1h-1zM38 54h1v1h-1zM47 54h2v1h-2zM53 54h1v1h-1zM56 54h1v1h-1zM62 54h2v1h-2zM0 55h2v1h-2zM21 55h2v1h-2zM30 55h1v1h-1zM33 55h1v1h-1zM35 55h1v1h-1zM41 55h2v1h-2zM44 55h1v1h-1zM48 55h1v1h-1zM50 55h1v1h-1zM58 55h3v1h-3zM62 55h1v1h-1zM1 56h1v1h-1zM4 56h1v1h-1zM16 56h1v1h-1zM19 56h2v1h-2zM37 56h3v1h-3zM44 56h1v1h-1zM46 56h1v1h-1zM53 56h1v1h-1zM57 56h1v1h-1zM59 56h1v1h-1zM2 57h3v1h-3zM12 57h1v1h-1zM23 57h1v1h-1zM25 57h1v1h-1zM28 57h1v1h-1zM35 57h1v1h-1zM37 57h1v1h-1zM44 57h1v1h-1zM46 57h1v1h-1zM49 57h1v1h-1zM55 57h1v1h-1zM61 57h1v1h-1zM2 58h1v1h-1zM7 58h1v1h-1zM9 58h1v1h-1zM19 58h1v1h-1zM28 58h1v1h-1zM33 58h1v1h-1zM39 58h3v1h-3zM47 58h1v1h-1zM51 58h1v1h-1zM57 58h1v1h-1zM59 58h1v1h-1zM0 59h1v1h-1zM9 59h1v1h-1zM18 59h1v1h-1zM20 59h4v1h-4zM27 59h1v1h-1zM32 59h1v1h-1zM35 59h3v1h-3zM48 59h1v1h-1zM51 59h1v1h-1zM59 59h1v1h-1zM6 60h1v1h-1zM14 60h1v1h-1zM20 60h1v1h-1zM24 60h1v1h-1zM36 60h1v1h-1zM45 60h1v1h-1zM49 60h1v1h-1zM51 60h2v1h-2zM60 60h4v1h-4zM4 61h1v1h-1zM8 61h1v1h-1zM11 61h1v1h-1zM16 61h2v1h-2zM20 61h1v1h-1zM23 61h1v1h-1zM27 61h1v1h-1zM29 61h1v1h-1zM36 61h1v1h-1zM47 61h1v1h-1zM52 61h1v1h-1zM61 61h1v1h-1zM6 62h1v1h-1zM8 62h1v1h-1zM31 62h1v1h-1zM34 62h1v1h-1zM41 62h1v1h-1zM46 62h1v1h-1zM51 62h2v1h-2zM56 62h1v1h-1zM61 62h3v1h-3zM4 63h1v1h-1zM16 63h1v1h-1zM19 63h1v1h-1zM21 63h1v1h-1zM24 63h1v1h-1zM28 63h1v1h-1zM34 63h1v1h-1zM37 63h2v1h-2zM42 63h2v1h-2zM47 63h2v1h-2zM50 63h1v1h-1zM55 63h1v1h-1zM59 63h1v1h-1z" />
</svg>
